<svg width="23" height="23" viewBox="0 0 23 23" fill="none" xmlns="http://www.w3.org/2000/svg">
<rect width="22.4" height="22.4" rx="11.2" fill="white"/>
<path d="M11.2 6.61202C12.6843 6.61202 12.8868 6.61202 13.494 6.61202C14.0337 6.61202 14.3036 6.74696 14.506 6.81443C14.7759 6.94937 14.9783 7.01684 15.1807 7.21925C15.3831 7.42166 15.5181 7.62407 15.5855 7.89395C15.653 8.09636 15.7205 8.36624 15.788 8.906C15.788 9.51323 15.788 9.64817 15.788 11.2C15.788 12.7518 15.788 12.8867 15.788 13.494C15.788 14.0337 15.653 14.3036 15.5855 14.506C15.4506 14.7759 15.3831 14.9783 15.1807 15.1807C14.9783 15.3831 14.7759 15.518 14.506 15.5855C14.3036 15.653 14.0337 15.7205 13.494 15.7879C12.8868 15.7879 12.7518 15.7879 11.2 15.7879C9.6482 15.7879 9.51326 15.7879 8.90603 15.7879C8.36627 15.7879 8.09639 15.653 7.89398 15.5855C7.6241 15.4506 7.42169 15.3831 7.21928 15.1807C7.01687 14.9783 6.88193 14.7759 6.81446 14.506C6.74699 14.3036 6.67952 14.0337 6.61205 13.494C6.61205 12.8867 6.61205 12.7518 6.61205 11.2C6.61205 9.64817 6.61205 9.51323 6.61205 8.906C6.61205 8.36624 6.74699 8.09636 6.81446 7.89395C6.9494 7.62407 7.01687 7.42166 7.21928 7.21925C7.42169 7.01684 7.6241 6.8819 7.89398 6.81443C8.09639 6.74696 8.36627 6.67949 8.90603 6.61202C9.51326 6.61202 9.71567 6.61202 11.2 6.61202ZM11.2 5.59998C9.6482 5.59998 9.51326 5.59998 8.90603 5.59998C8.2988 5.59998 7.89398 5.73492 7.55663 5.86986C7.21928 6.0048 6.88193 6.2072 6.54458 6.54455C6.20724 6.8819 6.0723 7.15178 5.86989 7.5566C5.73495 7.89395 5.66748 8.29877 5.60001 8.906C5.60001 9.51323 5.60001 9.71564 5.60001 11.2C5.60001 12.7518 5.60001 12.8867 5.60001 13.494C5.60001 14.1012 5.73495 14.506 5.86989 14.8433C6.00483 15.1807 6.20724 15.518 6.54458 15.8554C6.88193 16.1927 7.15181 16.3277 7.55663 16.5301C7.89398 16.665 8.2988 16.7325 8.90603 16.8C9.51326 16.8 9.71567 16.8 11.2 16.8C12.6843 16.8 12.8868 16.8 13.494 16.8C14.1012 16.8 14.506 16.665 14.8434 16.5301C15.1807 16.3952 15.5181 16.1927 15.8554 15.8554C16.1928 15.518 16.3277 15.2482 16.5301 14.8433C16.6651 14.506 16.7325 14.1012 16.8 13.494C16.8 12.8867 16.8 12.6843 16.8 11.2C16.8 9.71564 16.8 9.51323 16.8 8.906C16.8 8.29877 16.6651 7.89395 16.5301 7.5566C16.3952 7.21925 16.1928 6.8819 15.8554 6.54455C15.5181 6.2072 15.2482 6.07227 14.8434 5.86986C14.506 5.73492 14.1012 5.66745 13.494 5.59998C12.8868 5.59998 12.7518 5.59998 11.2 5.59998Z" fill="#2C3E54"/>
<path d="M11.2 8.29877C9.58073 8.29877 8.2988 9.5807 8.2988 11.2C8.2988 12.8193 9.58073 14.1012 11.2 14.1012C12.8193 14.1012 14.1012 12.8193 14.1012 11.2C14.1012 9.5807 12.8193 8.29877 11.2 8.29877ZM11.2 13.0891C10.188 13.0891 9.31085 12.2795 9.31085 11.2C9.31085 10.1879 10.1205 9.31082 11.2 9.31082C12.2121 9.31082 13.0892 10.1205 13.0892 11.2C13.0892 12.212 12.2121 13.0891 11.2 13.0891Z" fill="#2C3E54"/>
<path d="M14.1687 8.906C14.5413 8.906 14.8434 8.60393 14.8434 8.2313C14.8434 7.85868 14.5413 7.5566 14.1687 7.5566C13.7961 7.5566 13.494 7.85868 13.494 8.2313C13.494 8.60393 13.7961 8.906 14.1687 8.906Z" fill="#2C3E54"/>
</svg>
