<svg width="23" height="23" viewBox="0 0 23 23" fill="none" xmlns="http://www.w3.org/2000/svg">
<rect width="22.4" height="22.4" rx="11.2" fill="white"/>
<path d="M17.136 8.34403C16.744 8.51203 16.296 8.62403 15.848 8.68003C16.296 8.40003 16.688 7.95203 16.856 7.44803C16.408 7.72803 15.96 7.89603 15.4 8.00803C15.008 7.56003 14.392 7.28003 13.776 7.28003C12.544 7.28003 11.536 8.28803 11.536 9.52003C11.536 9.68803 11.536 9.85603 11.592 10.024C9.744 9.91203 8.064 9.01603 6.944 7.67203C6.776 8.00803 6.664 8.40003 6.664 8.79203C6.664 9.57603 7.056 10.248 7.672 10.64C7.28 10.64 6.944 10.528 6.664 10.36C6.664 11.424 7.448 12.376 8.456 12.544C8.288 12.6 8.064 12.6 7.84 12.6C7.672 12.6 7.56 12.6 7.392 12.544C7.672 13.44 8.512 14.112 9.52 14.112C8.736 14.728 7.784 15.064 6.72 15.064C6.552 15.064 6.384 15.064 6.16 15.008C7.168 15.624 8.344 16.016 9.632 16.016C13.776 16.016 16.016 12.6 16.016 9.63203V9.35203C16.464 9.18403 16.856 8.79203 17.136 8.34403Z" fill="#2C3E54"/>
</svg>
