<svg width="23" height="23" viewBox="0 0 23 23" fill="none" xmlns="http://www.w3.org/2000/svg">
<rect width="22.4" height="22.4" rx="11.2" fill="white"/>
<path fill-rule="evenodd" clip-rule="evenodd" d="M6.30699 15.1518C6.08732 15.0868 5.88689 14.9712 5.72261 14.8147C5.55833 14.6582 5.43502 14.4655 5.36308 14.2527C4.95203 13.1529 4.83023 8.56068 5.6219 7.65412C5.88538 7.35921 6.25737 7.17764 6.65714 7.14883C8.78093 6.9259 15.3426 6.95562 16.0962 7.22313C16.3081 7.29026 16.5018 7.40334 16.6626 7.55391C16.8234 7.70447 16.9473 7.88862 17.0249 8.09254C17.474 9.22945 17.4892 13.361 16.964 14.4533C16.8246 14.7377 16.5914 14.968 16.3017 15.1072C15.51 15.4936 7.35746 15.4862 6.30699 15.1518V15.1518ZM9.67916 12.9969L13.4852 11.0649L9.67916 9.11799V12.9969Z" fill="#2C3E54"/>
</svg>
