<svg width="22" height="22" viewBox="0 0 22 22" fill="none" xmlns="http://www.w3.org/2000/svg">
<path d="M21.0001 18.9201V15.9201C21.0122 15.4297 20.8437 14.9519 20.5266 14.5776C20.2095 14.2033 19.7658 13.9586 19.2801 13.8901C18.32 13.7635 17.3773 13.5286 16.4701 13.1901C16.1121 13.0556 15.7231 13.0264 15.3492 13.1062C14.9752 13.1859 14.6319 13.3712 14.3601 13.6401L13.0901 14.9101C10.5865 13.4865 8.51361 11.4136 7.09006 8.9101L8.36005 7.6401C8.62892 7.36821 8.81421 7.02494 8.89396 6.65098C8.97372 6.27701 8.9446 5.88802 8.81006 5.5301C8.47151 4.62282 8.23668 3.68016 8.11005 2.7201C8.04213 2.23954 7.80179 1.80008 7.43382 1.48363C7.06585 1.16718 6.59536 0.995321 6.11006 1.0001H3.11006C2.8324 1.00036 2.55783 1.05843 2.30385 1.17062C2.04986 1.28281 1.82202 1.44665 1.63482 1.65172C1.44763 1.85679 1.30518 2.09859 1.21656 2.36172C1.12793 2.62486 1.09507 2.90356 1.12006 3.1801C1.4483 6.27109 2.50003 9.2413 4.19006 11.8501C5.72539 14.2663 7.77388 16.3148 10.1901 17.8501C12.7871 19.5342 15.7429 20.5857 18.8201 20.9201C19.0974 20.9452 19.377 20.912 19.6408 20.8228C19.9046 20.7336 20.1469 20.5902 20.3521 20.402C20.5574 20.2137 20.721 19.9846 20.8326 19.7294C20.9441 19.4743 21.0012 19.1986 21.0001 18.9201Z" stroke="#ACC6E6" stroke-width="2" stroke-linecap="round" stroke-linejoin="round"/>
</svg>
